<svg xmlns="http://www.w3.org/2000/svg" viewBox="0 0 153.725 95.254"><defs><style>.cls-1{fill:#e45213;}</style></defs><g id="レイヤー_2" data-name="レイヤー 2"><g id="レイヤー_1-2" data-name="レイヤー 1"><path class="cls-1" d="M45.076,76c5.976,4.608,14.473,8.5,22.61,10.657A45.423,45.423,0,0,0,62,93.857,69.645,69.645,0,0,1,38.091,79.888v15.05h-8.64V79.672A68.379,68.379,0,0,1,5.761,94.434,43.542,43.542,0,0,0,0,87.233,64.916,64.916,0,0,0,22.394,76H1.872V68.583H29.451V63.831H19.8V34.956h8.5a63.732,63.732,0,0,0,1.513-7.128l9.5,1.008c-.792,2.16-1.656,4.248-2.376,6.12H47.884v7.2a81.164,81.164,0,0,0,10.369-10.8L65.6,35.749a107.621,107.621,0,0,1-12.1,11.3l-5.616-3.744v8.929l3.168-3.6c5.329,2.592,12.818,6.913,16.49,9.865l-5.256,6.409a95.821,95.821,0,0,0-14.4-9.577v8.5H38.091v4.752H65.886V76ZM19.586,56.126c-4.969,3.1-10.585,6.48-15.122,9L.216,58.07c4.321-1.944,10.729-5.4,17.066-8.784ZM12.6,48.35C10.513,45.037,5.688,40.357,1.44,37.188l5.9-4.9c4.176,2.88,9.217,7.272,11.521,10.513Zm26.93-6.841H27.723v4.752H39.531ZM27.723,57.278H39.531v-4.9H27.723Z"/><path class="cls-1" d="M150.917,59.366a130.821,130.821,0,0,1-13.249,8.713,36.707,36.707,0,0,0,16.057,14.473,36.034,36.034,0,0,0-5.976,7.417C134.932,83.128,127.8,69.879,123.7,53.1h-.145a46.354,46.354,0,0,1-5.976,4.176c13.537,11.809,13.033,29.739,5.9,34.923-2.664,2.3-5.04,3.025-8.785,3.025a59.983,59.983,0,0,1-6.12-.144,17.96,17.96,0,0,0-2.449-8.209c2.737.216,5.041.36,6.913.36,1.8,0,3.168-.216,4.321-1.512,1.655-1.3,2.664-4.249,2.376-8.065A111.03,111.03,0,0,1,92.233,91.913a36.955,36.955,0,0,0-4.465-7.128c10.369-2.593,22.9-8.5,30.026-14.546a27.838,27.838,0,0,0-1.368-2.52,106.074,106.074,0,0,1-21.817,10.8,30.8,30.8,0,0,0-4.321-6.48c7.273-1.728,16.849-5.689,22.25-9.361-.577-.576-1.152-1.153-1.8-1.728a107.388,107.388,0,0,1-17.066,6.12,50.565,50.565,0,0,0-4.392-6.7A87.086,87.086,0,0,0,111.314,53.1H100.8V45.9h38.668v7.2H131.26a63.664,63.664,0,0,0,2.951,8.353,86.58,86.58,0,0,0,10.01-7.849ZM98.281,49.574H89.856V33.516h25.922V27.9h8.785v5.617h26.354V49.574h-8.784V41.293H98.281Z"/><path class="cls-1" d="M17.863,7.454A13.9,13.9,0,0,1,15.18,12.37a13.792,13.792,0,0,1-6.428,3.979L6.573,13.882A12.334,12.334,0,0,0,12.767,10.8a7.066,7.066,0,0,0,1.675-2.611H6.25c-.451,0-1.477.018-2.288.09V5.474c.829.072,1.675.126,2.288.126h8.57a4.2,4.2,0,0,0,1.513-.216L18.259,6.59A6.991,6.991,0,0,0,17.863,7.454ZM7.672,1.188H14.5a20.238,20.238,0,0,0,2.125-.108V3.889c-.5-.036-1.477-.072-2.162-.072H7.672c-.612,0-1.477.018-2.017.072V1.08A17.274,17.274,0,0,0,7.672,1.188Z"/><path class="cls-1" d="M56.176,2.827h2.9a6.8,6.8,0,0,0,1.783-.234l2.214,1.368a8.031,8.031,0,0,0-.7,1.477,18.856,18.856,0,0,1-3.115,5.905,17.308,17.308,0,0,1-7.31,5.186l-2.593-2.3A14.508,14.508,0,0,0,56.644,9.8a11.534,11.534,0,0,0,2.377-4.5H54.538A22.337,22.337,0,0,1,50,9.6L47.551,7.778a16.331,16.331,0,0,0,5.6-5.635A9.441,9.441,0,0,0,54.106,0l3.187,1.044C56.878,1.621,56.446,2.359,56.176,2.827Z"/><path class="cls-1" d="M99.693,4.682a24.221,24.221,0,0,0,5.149-4.43L107.2,2.5a34.727,34.727,0,0,1-4.808,3.853V13.45a13.453,13.453,0,0,0,.18,2.611H99.117a24.359,24.359,0,0,0,.143-2.611V8.174a35.64,35.64,0,0,1-6.085,2.431l-1.35-2.754A28.574,28.574,0,0,0,99.693,4.682Z"/><path class="cls-1" d="M138.961,2.377h9.759a14.621,14.621,0,0,0,1.765-.127V5.24c-.576-.054-1.242-.091-1.765-.091h-3.529v6.825h4.5a11.649,11.649,0,0,0,1.783-.162v3.15a15.765,15.765,0,0,0-1.783-.089H137.827a17.348,17.348,0,0,0-1.873.089v-3.15a11.224,11.224,0,0,0,1.873.162h4.3V5.149h-3.169c-.558,0-1.35.037-1.818.091V2.25A14,14,0,0,0,138.961,2.377Z"/></g></g></svg>