<svg xmlns="http://www.w3.org/2000/svg" viewBox="0 0 320 320"><defs><style>.cls-1{fill:#06c755;}.cls-2{fill:#fff;}</style></defs><g id="レイヤー_2" data-name="レイヤー 2"><g id="LINE_LOGO" data-name="LINE LOGO"><rect class="cls-1" width="320" height="320" rx="72.14"/><path class="cls-2" d="M266.656,144.924c0-47.739-47.86-86.579-106.689-86.579S53.279,97.185,53.279,144.924c0,42.8,37.955,78.642,89.225,85.418,3.474.751,8.2,2.291,9.4,5.262,1.075,2.7.7,6.922.345,9.646,0,0-1.252,7.528-1.523,9.134-.465,2.7-2.144,10.548,9.241,5.751s61.441-36.179,83.825-61.941h0C259.248,181.237,266.656,164.03,266.656,144.924Z"/><path class="cls-1" d="M231.163,172.49H201.189a2.037,2.037,0,0,1-2.037-2.037V123.892a2.037,2.037,0,0,1,2.037-2.037h29.974a2.043,2.043,0,0,1,2.037,2.037v7.566a2.037,2.037,0,0,1-2.037,2.037h-20.37v7.857h20.37a2.043,2.043,0,0,1,2.037,2.038v7.566a2.037,2.037,0,0,1-2.037,2.037h-20.37v7.857h20.37a2.043,2.043,0,0,1,2.037,2.037v7.566A2.037,2.037,0,0,1,231.163,172.49Z"/><path class="cls-1" d="M120.289,172.49a2.037,2.037,0,0,0,2.037-2.037v-7.566a2.043,2.043,0,0,0-2.037-2.037H99.918V123.892a2.043,2.043,0,0,0-2.037-2.037H90.315a2.037,2.037,0,0,0-2.037,2.037v46.561a2.037,2.037,0,0,0,2.037,2.037h29.974Z"/><rect class="cls-1" x="128.73" y="121.855" width="11.64" height="50.635" rx="2.037"/><path class="cls-1" d="M189.842,121.855h-7.566a2.037,2.037,0,0,0-2.037,2.037v27.655l-21.3-28.77a2.078,2.078,0,0,0-.164-.21l-.013-.015c-.04-.044-.08-.086-.123-.127l-.038-.035q-.054-.048-.111-.093l-.055-.041c-.035-.026-.071-.051-.108-.074l-.062-.038c-.037-.022-.074-.043-.113-.062l-.064-.031c-.039-.019-.079-.036-.119-.052l-.067-.024c-.041-.014-.081-.028-.123-.04l-.072-.018c-.041-.01-.081-.019-.122-.027l-.086-.013c-.037,0-.073-.01-.11-.013s-.072-.005-.109-.006-.046,0-.07,0h-7.524a2.037,2.037,0,0,0-2.037,2.037v46.561a2.037,2.037,0,0,0,2.037,2.037h7.566a2.037,2.037,0,0,0,2.037-2.037V142.807l21.33,28.806a2.077,2.077,0,0,0,.525.513l.024.016c.042.027.085.053.128.078l.059.032q.048.025.1.048l.1.043.064.023q.069.025.141.045l.029.008a2.075,2.075,0,0,0,.532.071h7.525a2.037,2.037,0,0,0,2.037-2.037V123.892A2.037,2.037,0,0,0,189.842,121.855Z"/></g></g></svg>